<?xml version="1.0" encoding="UTF-8"?>
<svg width="700pt" height="700pt" version="1.1" viewBox="0 0 700 700" xmlns="http://www.w3.org/2000/svg"
    xmlns:xlink="http://www.w3.org/1999/xlink">
    <g>
        <path
            d="m131.25 105h43.75v192.5c0 4.8398 3.9219 8.75 8.75 8.75s8.75-3.9102 8.75-8.75v-192.5h8.75c4.8281 0 8.75-3.9102 8.75-8.75s-3.9219-8.75-8.75-8.75h-61.25v-26.25c0-24.125 19.625-43.75 43.75-43.75h272.22c-11.375 11.129-18.473 26.617-18.473 43.75v26.25h-201.25c-4.8281 0-8.75 3.9102-8.75 8.75s3.9219 8.75 8.75 8.75h210c4.8398 0 8.75-3.9102 8.75-8.75v-35c0-24.125 19.625-43.75 43.75-43.75s43.75 19.625 43.75 43.75v131.25c0 4.8398 3.9102 8.75 8.75 8.75s8.75-3.9102 8.75-8.75v-131.25c0-33.766-27.484-61.25-61.25-61.25h-315c-33.773 0-61.25 27.484-61.25 61.25v35c0 4.8398 3.9219 8.75 8.75 8.75z" />
        <path
            d="m551.25 367.5c-4.8398 0-8.75 3.9102-8.75 8.75v105h-227.5c-4.8281 0-8.75 3.9102-8.75 8.75s3.9219 8.75 8.75 8.75h236.25c4.8398 0 8.75-3.9102 8.75-8.75v-113.75c0-4.8398-3.9102-8.75-8.75-8.75z" />
        <path
            d="m619.75 220.25c-13.211-13.23-36.277-13.23-49.488 0l-148.5 148.5c-1.1211 1.1211-1.918 2.5273-2.3008 4.0703l-12.371 49.488c-0.75391 2.9844 0.13281 6.1328 2.3008 8.3047 1.6523 1.6523 3.8945 2.5625 6.1875 2.5625 0.70703 0 1.418-0.085937 2.1172-0.26172l49.488-12.371c1.5391-0.38672 2.9492-1.1797 4.0703-2.3008l148.5-148.5c6.6133-6.6055 10.254-15.398 10.254-24.746 0-9.3438-3.6406-18.141-10.254-24.746zm-12.371 37.117-146.78 146.77-32.996 8.25 8.25-32.996 128.21-128.22 6.1875 6.1875c1.707 1.707 3.9453 2.5625 6.1875 2.5625 2.2383 0 4.4805-0.85938 6.1875-2.5625 3.4219-3.4219 3.4219-8.9531 0-12.371l-6.1875-6.1875 6.1875-6.1875c6.6133-6.6133 18.129-6.6133 24.746 0 3.3086 3.3086 5.1289 7.6992 5.1289 12.371s-1.8203 9.0664-5.1289 12.371z" />
        <path
            d="m183.75 420c14.473 0 26.25-11.777 26.25-26.25s-11.777-26.25-26.25-26.25-26.25 11.777-26.25 26.25 11.777 26.25 26.25 26.25zm0-35c4.8203 0 8.75 3.9219 8.75 8.75s-3.9297 8.75-8.75 8.75-8.75-3.9219-8.75-8.75 3.9297-8.75 8.75-8.75z" />
        <path
            d="m210 498.75c0-14.473-11.777-26.25-26.25-26.25s-26.25 11.777-26.25 26.25 11.777 26.25 26.25 26.25 26.25-11.777 26.25-26.25zm-35 0c0-4.8281 3.9297-8.75 8.75-8.75s8.75 3.9219 8.75 8.75-3.9297 8.75-8.75 8.75-8.75-3.9219-8.75-8.75z" />
        <path
            d="m131.25 420c-14.473 0-26.25 11.777-26.25 26.25s11.777 26.25 26.25 26.25 26.25-11.777 26.25-26.25-11.777-26.25-26.25-26.25zm0 35c-4.8203 0-8.75-3.9219-8.75-8.75s3.9297-8.75 8.75-8.75 8.75 3.9219 8.75 8.75-3.9297 8.75-8.75 8.75z" />
        <path
            d="m236.25 472.5c14.473 0 26.25-11.777 26.25-26.25s-11.777-26.25-26.25-26.25-26.25 11.777-26.25 26.25 11.777 26.25 26.25 26.25zm0-35c4.8203 0 8.75 3.9219 8.75 8.75s-3.9297 8.75-8.75 8.75-8.75-3.9219-8.75-8.75 3.9297-8.75 8.75-8.75z" />
        <path
            d="m341.25 542.5h-97.16c32.016-20.152 53.41-55.711 53.41-96.25 0-62.719-51.031-113.75-113.75-113.75s-113.75 51.031-113.75 113.75 51.031 113.75 113.75 113.75h157.5c4.8281 0 8.75-3.9102 8.75-8.75s-3.9219-8.75-8.75-8.75zm-253.75-96.25c0-53.07 43.18-96.25 96.25-96.25s96.25 43.18 96.25 96.25-43.18 96.25-96.25 96.25-96.25-43.18-96.25-96.25z" />
        <path
            d="m498.75 140h-210c-4.8281 0-8.75 3.9102-8.75 8.75s3.9219 8.75 8.75 8.75h210c4.8398 0 8.75-3.9102 8.75-8.75s-3.9102-8.75-8.75-8.75z" />
        <path
            d="m498.75 175h-262.5c-4.8281 0-8.75 3.9102-8.75 8.75s3.9219 8.75 8.75 8.75h262.5c4.8398 0 8.75-3.9102 8.75-8.75s-3.9102-8.75-8.75-8.75z" />
        <path
            d="m507.5 218.75c0-4.8398-3.9102-8.75-8.75-8.75h-262.5c-4.8281 0-8.75 3.9102-8.75 8.75s3.9219 8.75 8.75 8.75h262.5c4.8398 0 8.75-3.9102 8.75-8.75z" />
        <path
            d="m437.5 253.75c0-4.8398-3.9102-8.75-8.75-8.75h-192.5c-4.8281 0-8.75 3.9102-8.75 8.75s3.9219 8.75 8.75 8.75h192.5c4.8398 0 8.75-3.9102 8.75-8.75z" />
        <path
            d="m455 306.25c0-4.8398-3.9102-8.75-8.75-8.75h-157.5c-4.8281 0-8.75 3.9102-8.75 8.75s3.9219 8.75 8.75 8.75h157.5c4.8398 0 8.75-3.9102 8.75-8.75z" />
        <path
            d="m420 341.25c0-4.8398-3.9102-8.75-8.75-8.75h-122.5c-4.8281 0-8.75 3.9102-8.75 8.75s3.9219 8.75 8.75 8.75h122.5c4.8398 0 8.75-3.9102 8.75-8.75z" />
        <path
            d="m306.25 367.5c-4.8281 0-8.75 3.9102-8.75 8.75s3.9219 8.75 8.75 8.75h78.75c4.8398 0 8.75-3.9102 8.75-8.75s-3.9102-8.75-8.75-8.75z" />
        <use x="70" y="691.25" xlink:href="#o" />
        <use x="102.109375" y="691.25" xlink:href="#c" />
        <use x="123.683594" y="691.25" xlink:href="#a" />
        <use x="153.355469" y="691.25" xlink:href="#b" />
        <use x="182.878906" y="691.25" xlink:href="#h" />
        <use x="203.792969" y="691.25" xlink:href="#a" />
        <use x="233.464844" y="691.25" xlink:href="#g" />
        <use x="280.011719" y="691.25" xlink:href="#f" />
        <use x="311.328125" y="691.25" xlink:href="#e" />
        <use x="355.078125" y="691.25" xlink:href="#d" />
        <use x="388.425781" y="691.25" xlink:href="#a" />
        <use x="418.097656" y="691.25" xlink:href="#c" />
        <use x="439.675781" y="691.25" xlink:href="#n" />
        <use x="468.769531" y="691.25" xlink:href="#b" />
        <use x="498.292969" y="691.25" xlink:href="#m" />
        <use x="544.671875" y="691.25" xlink:href="#l" />
        <use x="560.949219" y="691.25" xlink:href="#k" />
        <use x="586.882812" y="691.25" xlink:href="#j" />
        <use x="616.9375" y="691.25" xlink:href="#i" />
    </g>
</svg>
