<?xml version="1.0" encoding="UTF-8"?>
<svg width="700pt" height="700pt" version="1.1" viewBox="0 0 700 700" xmlns="http://www.w3.org/2000/svg"
    xmlns:xlink="http://www.w3.org/1999/xlink">
    <g>
        <path d="m0 21.875v525h700v-525zm686 511h-672v-234.5h672zm-672-248.5v-248.5h672v248.5z" />
        <path d="m262.5 135.62h332.5v14h-332.5z" />
        <path d="m262.5 100.62h245v14h-245z" />
        <path d="m262.5 170.62h262.5v14h-262.5z" />
        <path
            d="m157.5 83.125c-33.828 0-61.25 27.422-61.25 61.25s27.422 61.25 61.25 61.25 61.25-27.422 61.25-61.25-27.422-61.25-61.25-61.25zm35.23 97.699c-0.066407-0.18359-0.11328-0.41016-0.18359-0.57422-2.0312-4.5625-11.93-7.582-18.512-10.414-6.5781-2.8359-5.6797-4.5547-5.918-6.9023-0.066407-0.65625-0.085938-1.3984-0.085938-2.1289 1.9258-1.5977 3.5859-3.5352 4.6055-6.1758 0 0 0.0625-0.15625 0.082031-0.20312 0.25391-0.66797 0.35547-2.6094 0.55078-3.3203 1.5078-0.29688 2.3867-1.9023 2.7227-3.3828 0.33984-0.59766 1.043-2.0742 0.88281-3.7539-0.20703-2.1562-1.0977-3.1562-2.1016-3.5742 0-0.12891 0.003906-0.25391 0.003906-0.375 0-0.37891-0.007813-0.75781-0.015625-1.1328 0.28516-1.9961 0.52734-3.9688 0.52734-5.0977 0-1.4727-0.32031-4.3906-1.3203-7.0742l0.015625 0.015625-1.3125-2.8047-0.23047-1.1289-1.1289-0.32031c-0.058594-0.054687-0.12109-0.10547-0.18359-0.15625 0.13672-0.27344-0.96484-1.0742-0.015625-1.3984-0.40625-0.56641-2.4102-0.23828-2.4102-0.23828s-0.30078-1.9453-0.78906-2.207c-0.25391 0.35547-1.2578 0.24609-2.0742 0.18359-3.1016-0.40625-1.1875-3.0469-4.3828-3.3438 0.015625-1.25-0.015625-2.2539-0.015625-2.2539s-1.625 1.3633-2.2227 0.82812c-0.36328-1.2578 0.48828-2.8359 0.48828-2.8359s-2.3398 0.027343-2.8984 2.3555c-0.49219-0.67188 0.078125-1.707 0.46484-2.2266-2.9727 1.0039-3.9219 3.2383-5.1055 4.6641-0.15625 0.1875-0.58984-0.66016-0.53906-1.1875-1.1602 0.54297-1.8633 3.6719-2.3828 3.8906-0.51953 0.22266-1.5859-0.66406-1.6602-1.0195-1.0898 0.078125-3.6562 5.3281-3.6562 5.3281l-2.5312 2.5312s1.2773-0.09375 1.3438 0.36719c0.0625 0.46094-1.875 3.8906-1.875 3.8906s1.0508-0.60156 1.1602-0.25781c0.10938 0.34766-0.019532 0.11719-0.03125 0.17578l-1.5312 4.0742 1.0664-0.41016c-0.12891 1.4883-0.1875 2.9492-0.1875 4.2656 0 1.2656 0.050781 2.2422 0.125 3.043-0.86328 0.48828-1.5977 1.4922-1.7812 3.4141-0.16016 1.6758 0.54297 3.1523 0.88281 3.7539 0.34375 1.5039 1.2461 3.1406 2.8047 3.3945 0.19141 0.71484 0.51172 2.4688 0.76172 3.1445 0.015625 0.046875 0.035156 0.085937 0.050781 0.12891l0.023438 0.058594c1.0391 2.6758 2.6328 4.6211 4.5273 6.2266 0.007813 0.76953-0.011719 1.5625-0.082031 2.2617-0.23828 2.3516 0.45312 4.0703-6.125 6.9023s-16.484 5.8555-18.512 10.414c-0.21484 0.48047-0.38672 1.0625-0.53906 1.6875-10.242-9.2852-16.73-22.66-16.73-37.551 0-27.984 22.766-50.75 50.75-50.75s50.75 22.766 50.75 50.75c0 14.301-5.9688 27.215-15.52 36.449z" />
        <path d="m122.5 223.12h70v14h-70z" />
        <path d="m87.5 398.12h350v14h-350z" />
        <path d="m87.5 363.12h245v14h-245z" />
        <path d="m87.5 433.12h350v14h-350z" />
        <path d="m507.5 485.62h70v14h-70z" />
        <path
            d="m542.5 468.12c33.828 0 61.25-27.422 61.25-61.25s-27.422-61.25-61.25-61.25-61.25 27.422-61.25 61.25 27.422 61.25 61.25 61.25zm0-112c27.984 0 50.75 22.766 50.75 50.75 0 15.23-6.7773 28.883-17.438 38.191-0.19531-4.1016-0.50391-7.2539-0.98047-8.3281-1.9141-4.3047-11.262-7.1523-17.473-9.832-6.2109-2.6758-5.3633-4.2969-5.5859-6.5156-0.015626-0.13281-0.023438-0.27344-0.035157-0.41406 1.3203-1.1445 2.4883-2.5469 3.4531-4.1484 3.8516 0.90234 8.1719 0.82422 11.945-1.9102-6.0273-6.0273-2.6172-14.051-6.9688-27.371-3.7031-11.324-18.875-10.766-20.832-6.7852-8.0469-2.8438-14.117 0.96094-16.352 12.957-2.5703 13.777 0.89062 15.227-5.1328 21.254 4.1914 2.3945 8.0625 2.0938 11.492 0.92578 1.082 2.0352 2.4805 3.8086 4.1016 5.1836-0.007812 0.10547-0.015624 0.21094-0.027343 0.3125-0.22266 2.2188 0.42969 3.8398-5.7812 6.5156-6.2109 2.6758-15.559 5.5234-17.473 9.832-0.47656 1.0703-0.78516 4.2227-0.98437 8.3281-10.66-9.3086-17.438-22.961-17.438-38.191 0.007812-27.988 22.773-50.754 50.758-50.754z" />
        <use y="599.375" xlink:href="#w" />
        <use x="12.84375" y="599.375" xlink:href="#c" />
        <use x="21.472656" y="599.375" xlink:href="#a" />
        <use x="33.34375" y="599.375" xlink:href="#k" />
        <use x="45.152344" y="599.375" xlink:href="#b" />
        <use x="53.515625" y="599.375" xlink:href="#a" />
        <use x="65.386719" y="599.375" xlink:href="#e" />
        <use x="84.003906" y="599.375" xlink:href="#j" />
        <use x="96.53125" y="599.375" xlink:href="#i" />
        <use x="114.03125" y="599.375" xlink:href="#h" />
        <use x="125.183594" y="599.375" xlink:href="#g" />
        <use x="131.179688" y="599.375" xlink:href="#v" />
        <use x="143.273438" y="599.375" xlink:href="#u" />
        <use x="155.875" y="599.375" xlink:href="#t" />
        <use x="168.402344" y="599.375" xlink:href="#f" />
        <use x="180.863281" y="599.375" xlink:href="#g" />
        <use x="186.859375" y="599.375" xlink:href="#e" />
        <use y="616.875" xlink:href="#s" />
        <use x="7.613281" y="616.875" xlink:href="#c" />
        <use x="16.242188" y="616.875" xlink:href="#d" />
        <use x="28.265625" y="616.875" xlink:href="#r" />
        <use x="52.59375" y="616.875" xlink:href="#b" />
        <use x="60.960937" y="616.875" xlink:href="#q" />
        <use x="73.417969" y="616.875" xlink:href="#a" />
        <use x="91.378906" y="616.875" xlink:href="#p" />
        <use x="106.023437" y="616.875" xlink:href="#d" />
        <use x="118.046875" y="616.875" xlink:href="#f" />
        <use x="130.507812" y="616.875" xlink:href="#o" />
        <use x="149.058594" y="616.875" xlink:href="#n" />
        <use x="161.882812" y="616.875" xlink:href="#c" />
        <use x="170.515625" y="616.875" xlink:href="#d" />
        <use x="182.535156" y="616.875" xlink:href="#m" />
        <use x="188.535156" y="616.875" xlink:href="#a" />
        <use x="200.402344" y="616.875" xlink:href="#l" />
        <use x="210.777344" y="616.875" xlink:href="#b" />
    </g>
</svg>
